<?xml version="1.0" encoding="utf-8"?>
<svg xmlns="http://www.w3.org/2000/svg" xml:space="preserve">

<symbol id="mail" viewBox="0 0 40 40" >
  <path d="M34.96,32.96H5.01c-1.91,0-3.45-1.55-3.45-3.45V10.5
		c0-1.91,1.55-3.45,3.45-3.45h29.95c1.91,0,3.45,1.55,3.45,3.45V29.5C38.41,31.41,36.86,32.96,34.96,32.96z"/>
  <polyline points="4.31,9.68 20.01,21.59 35.63,9.73"/>
  <line x1="35.63" y1="30.35" x2="22.52" y2="19.69"/>
  <line x1="4.31" y1="30.34" x2="17.5" y2="19.69"/>

</symbol>

  <symbol id="phone" viewBox="0 0 40 40" >
	<path d="M10.73,2.81c2.94-1.26,6.95-1.56,8.42,1.94c1.35,2.73,3.36,6.63,0.43,9.09c-2.58,2.38-4.1,2.73-1.3,7.16
		c4.5,9.1,7.52-4.44,14.5,7.35c3.24,4.43-2.94,10.61-7.57,9.69C14.65,36.75-2,9.73,10.73,2.81z"/>
</symbol>

  <symbol id="location" viewBox="0 0 40 40" >
	<path d="M27.36,5.27
		L27.36,5.27c-4.54-4.54-11.89-4.54-16.41,0l0,0c-3.61,3.61-4.44,9.17-2.04,13.67l10.24,19.19l10.24-19.19
		C31.8,14.44,30.97,8.9,27.36,5.27z M23.58,18.06L23.58,18.06c-2.46,2.46-6.43,2.46-8.89,0l0,0c-2.46-2.46-2.46-6.43,0-8.89l0,0
		c2.46-2.46,6.43-2.46,8.89,0l0,0C26.05,11.63,26.05,15.62,23.58,18.06z"/>
  </symbol>

  <symbol id="vk" viewBox="0 0 40 40" >
	<path d="M2.22,10.22c0.01,0,0.02,0,0.03,0H6.7c0.56,0,0.99,0.37,1.19,0.86
		c0,0.01,0.01,0.03,0.01,0.04c0.55,2.24,4.79,12.32,7.29,11.92c0.55-0.09,0.57-2.33,0.57-4.02c0.06-3.25,0.04-5.36-1.89-7.73
		c-0.34-0.42,0-1.01,0.5-1.01h6.88c0.85,0,1.55,0.7,1.55,1.55v8.79c0,0.03,0,0.05,0.01,0.07c0.06,0.24,0.47,1.43,2.06-0.1
		c1.98-1.92,4.46-6.1,5.85-9.55c0.19-0.44,0.63-0.75,1.13-0.75h4.65c0.88,0,1.51,0.88,1.19,1.7l-0.5,1.31
		c0,0.01-0.01,0.02-0.01,0.03c-6.28,12.55-8.21,5.15,0.56,16.25c0.61,0.85,0.65,1.04,0.9,1.53c0.44,0.82-0.25,1.89-1.2,1.89h-5.28
		c-0.3,0.02-0.87-0.89-1.85-1.94c-1.56-1.65-3.8-3.81-4.88-4.47c-2.01-1.13-1.95,0.5-1.95,0.5c-0.04,3.19,0.71,6.2-3.76,5.85
		c-0.01,0-0.01,0-0.02,0c-0.26,0-7.01-0.16-12.44-8.23C3.58,19.02-1.2,10.56,2.22,10.22z"/>
  </symbol>
</svg>
