<?xml version="1.0" encoding="utf-8"?>
<svg xmlns="http://www.w3.org/2000/svg" xml:space="preserve">
  <symbol id="ru" viewBox="0 0 150 50" stroke="none">

	<path d="M27.09,46.96c2.66,0,8.63,0,11.24,0c1.29-4.59,2.24-14.43,3.6-29.31c-1.67,4.66-5.53,9.88-5.53,9.88
		S32.8,41.07,27.09,46.96z"/>
    <path
      d="M45.41,1.68c0,2.72-1.17,9.7-2.15,12.09l-1.97,33.19c0.87,0,3.29,0,4.19,0L45.41,1.68z"/>
    <g>
		<path d="M53.64,18h3.82v0.41c-0.77-0.01-1.42,0.16-1.27,1.02c4.4-2.11,6.05,5.25,1.35,5.46l-0.02-0.02
			c-0.31,0-1.08-0.09-1.33-0.26c-0.11,0.98,0.17,1.61,1.27,1.5v0.41h-3.82v-0.41c1.1,0.11,1.38-0.5,1.28-1.48
			c-5.52,2.07-5.5-7.45,0-5.18c-0.06-0.91-0.39-1.01-1.28-1.05V18z M54.92,19.94c-4.02-2.05-4.11,6.06,0,4.23V19.94z M56.19,24.15
			c4.06,1.85,4.03-6.28,0-4.23V24.15z"/>
      <path d="M67.48,20.22l-4.23,4.84c-0.04,0.9,0.46,1.02,1.27,1.02v0.41H60.7v-0.41c0.82,0,1.31-0.12,1.28-1.02c0,0,0-5.66,0-5.66
			c0.04-0.9-0.47-1.02-1.28-1.02v-0.41h3.82v0.41c-0.82-0.01-1.36,0.17-1.27,1.02c0,0,0,4.89,0,4.89l4.23-4.89
			c0.04-0.86-0.5-1.02-1.27-1.02v-0.41h3.82v0.41c-0.85-0.01-1.35,0.16-1.28,1.02c0,0,0,5.66,0,5.66c-0.03,0.91,0.46,1.03,1.28,1.02
			v0.41h-3.82v-0.41c0.79,0,1.31-0.15,1.27-1.02C67.48,25.06,67.48,20.22,67.48,20.22z"/>
      <path d="M77.19,22.26h-4.23v2.8c-0.04,0.9,0.46,1.02,1.27,1.02v0.41h-3.83v-0.41c0.82,0,1.31-0.12,1.28-1.02c0,0,0-5.66,0-5.66
			c0.04-0.9-0.47-1.02-1.28-1.02v-0.41h3.83v0.41c-0.82-0.01-1.36,0.17-1.27,1.02c0,0,0,2.32,0,2.32h4.23
			c-0.15-1.07,0.64-3.63-1.27-3.34v-0.41h3.82v0.41c-0.85-0.01-1.35,0.16-1.28,1.02c0,0,0,5.66,0,5.66
			c-0.03,0.91,0.46,1.03,1.28,1.02v0.41h-3.82v-0.41c0.79,0,1.31-0.15,1.27-1.02C77.19,25.06,77.19,22.26,77.19,22.26z"/>
      <path d="M84.82,17.85c0.66,0.78,2.93,8.65,4.41,8.23v0.41h-3.52v-0.41c1.95,0.3,0.44-1.67,0.23-2.47h-3.39
			c-0.22,0.86-1.68,2.72,0.3,2.47v0.41H79.9v-0.41c0.76-0.02,1.11-0.13,1.4-0.84c0,0,3.06-7.39,3.06-7.39H84.82z M85.68,23.07
			c-0.24-0.61-1.34-3.21-1.45-3.72c0.02,0.03-1.43,3.59-1.48,3.72H85.68z"/>
      <path d="M96.24,22.26h-4.23v2.8c-0.04,0.9,0.46,1.02,1.27,1.02v0.41h-3.83v-0.41c0.82,0,1.31-0.12,1.28-1.02c0,0,0-5.66,0-5.66
			c0.04-0.9-0.47-1.02-1.28-1.02v-0.41h3.83v0.41c-0.82-0.01-1.36,0.17-1.27,1.02c0,0,0,2.32,0,2.32h4.23
			c-0.15-1.07,0.64-3.63-1.27-3.34v-0.41h3.82v0.41c-0.85-0.01-1.35,0.16-1.28,1.02c0,0,0,5.66,0,5.66
			c-0.03,0.91,0.46,1.03,1.28,1.02v0.41h-3.82v-0.41c0.79,0,1.31-0.15,1.27-1.02C96.24,25.06,96.24,22.26,96.24,22.26z"/>
      <path d="M107.33,18l0.13,3.06h-0.41c-0.85-4.44-6.35-3.21-5.97,1.07c-0.38,3.94,4.56,5.53,6.25,1.86l0.46,0.36
			c-1.4,3.23-6.72,3.11-7.85-0.27c-1.72-4.08,3.1-8.2,6.75-5.44c0.08-0.12,0.17-0.34,0.28-0.63H107.33z"/>
      <path d="M112.89,26.72c-5.87,0.2-5.91-9.19,0-8.95C118.83,17.52,118.79,26.94,112.89,26.72z M112.89,26.26
			c4.18,0.1,4.17-8.18,0-8.09C108.76,18.11,108.73,26.36,112.89,26.26z"/>
      <path d="M122.21,21.88c2.49-0.21,3.87,3.14,1.47,4.33c-0.81,0.53-4.65,0.2-5.6,0.28v-0.41c0.82,0,1.31-0.12,1.28-1.02
			c0,0,0-5.66,0-5.66c0.04-0.9-0.45-1.02-1.28-1.02v-0.41c0.86,0.07,4.5-0.19,5.24,0.21C125.46,19.1,124.37,21.92,122.21,21.88z
			 M120.64,21.72c1.99,0.31,3.09-1.23,2.13-2.9c-0.32-0.54-1.53-0.4-2.13-0.42V21.72z M120.64,22.13c0.12,0.56-0.3,3.38,0.32,3.7
			C124.4,27.09,124.51,21.31,120.64,22.13z"/>
      <path d="M128.36,19.41v2.32c4.51-0.9,6.19,4.2,1.78,4.77c0,0-4.34,0-4.34,0v-0.41c0.82,0,1.31-0.12,1.28-1.02c0,0,0-5.66,0-5.66
			c0.04-0.9-0.46-1.02-1.28-1.02v-0.41h3.83v0.41C128.81,18.38,128.28,18.56,128.36,19.41z M128.36,22.16
			c0.2,1.04-0.74,4.19,1.25,3.87C131.88,26.02,132.16,21.51,128.36,22.16z M136.92,26.52h-3.82v-0.41c0.82,0,1.31-0.12,1.27-1.02
			c0,0,0-5.66,0-5.66c0.04-0.9-0.45-1.02-1.27-1.02V18h3.82v0.41c-0.82-0.01-1.35,0.18-1.28,1.02c0,0,0,5.66,0,5.66
			c-0.04,0.9,0.47,1.02,1.28,1.02V26.52z"/>
      <path d="M144.19,20.22l-4.23,4.84c-0.04,0.9,0.46,1.02,1.27,1.02v0.41h-3.83v-0.41c0.82,0,1.31-0.12,1.28-1.02c0,0,0-5.66,0-5.66
			c0.04-0.9-0.47-1.02-1.28-1.02v-0.41h3.83v0.41c-0.82-0.01-1.36,0.17-1.27,1.02c0,0,0,4.89,0,4.89l4.23-4.89
			c0.04-0.86-0.5-1.02-1.27-1.02v-0.41h3.82v0.41c-0.85-0.01-1.35,0.16-1.28,1.02c0,0,0,5.66,0,5.66c-0.03,0.91,0.46,1.03,1.28,1.02
			v0.41h-3.82v-0.41c0.79,0,1.31-0.15,1.27-1.02C144.19,25.06,144.19,20.22,144.19,20.22z M142.25,16.4c0.74,0.03,1.33-0.25,1.05-1
			c0.03-0.93,1.53-0.77,1.43,0.16c-0.21,1.83-4.75,1.84-4.95,0c-0.1-0.94,1.39-1.08,1.43-0.16
			C140.93,16.17,141.51,16.42,142.25,16.4z"/>
	</g>
    <g>
		<g>
			<path d="M55.37,39.17c-1.53,2.82-4.04-0.54-1.65-0.45c0.64,0.69,1.34,0.12,1.6-0.6c-0.77-0.78-3.52-6.33-4.78-6.25v-0.42h3.61
				v0.42c-0.75-0.05-1.3,0.12-0.94,0.86c0,0,2.77,4.29,2.77,4.29l2.09-4.29c0.41-0.79-0.38-0.91-0.99-0.86v-0.42h3.01v0.42
				C58.4,31.54,56.15,38.27,55.37,39.17z"/>
      <path d="M67.29,35.85h-4.34v2.88c-0.04,0.92,0.47,1.05,1.31,1.05v0.42h-3.92v-0.42c0.84,0,1.35-0.12,1.31-1.05c0,0,0-5.8,0-5.8
				c0.04-0.92-0.48-1.05-1.31-1.05v-0.42h3.92v0.42c-0.84-0.01-1.4,0.17-1.31,1.05c0,0,0,2.38,0,2.38h4.34
				c-0.16-1.1,0.65-3.72-1.31-3.42v-0.42h3.92v0.42c-0.87-0.01-1.39,0.17-1.31,1.05c0,0,0,5.8,0,5.8c-0.03,0.93,0.47,1.05,1.31,1.05
				v0.42h-3.92v-0.42c0.81,0,1.35-0.15,1.31-1.05C67.29,38.73,67.29,35.85,67.29,35.85z"/>
      <path d="M77.25,33.76l-4.34,4.97c-0.04,0.92,0.47,1.05,1.3,1.05v0.42h-3.92v-0.42c0.84,0,1.35-0.12,1.31-1.05c0,0,0-5.8,0-5.8
				c0.04-0.92-0.48-1.05-1.31-1.05v-0.42h3.92v0.42c-0.84-0.01-1.4,0.17-1.3,1.05c0,0,0,5.02,0,5.02l4.34-5.02
				c0.04-0.88-0.51-1.05-1.31-1.05v-0.42h3.92v0.42c-0.87-0.01-1.39,0.17-1.31,1.05c0,0,0,5.8,0,5.8c-0.03,0.93,0.47,1.05,1.31,1.05
				v0.42h-3.92v-0.42c0.81,0,1.35-0.15,1.31-1.05C77.25,38.73,77.25,33.76,77.25,33.76z"/>
      <path d="M84.49,35.46c2.55-0.21,3.96,3.22,1.51,4.44c-0.83,0.54-4.77,0.2-5.74,0.29v-0.42c0.84,0,1.35-0.12,1.31-1.05
				c0,0,0-5.8,0-5.8c0.04-0.93-0.47-1.05-1.31-1.05v-0.42c0.89,0.07,4.61-0.19,5.38,0.22C87.81,32.61,86.7,35.51,84.49,35.46z
				 M82.87,35.3c2.04,0.32,3.17-1.26,2.18-2.97c-0.33-0.55-1.56-0.41-2.18-0.43V35.3z M82.87,35.72c0.12,0.58-0.31,3.47,0.32,3.8
				C86.72,40.81,86.84,34.88,82.87,35.72z"/>
      <path d="M94.61,31.46l0.23,2.14h-0.39c-0.21-1.96-2.21-1.74-3.66-1.7v3.42c0.92,0.05,2.07,0.04,2.04-1.2h0.42v2.95h-0.42
				c0-1.36-0.97-1.33-2.04-1.28c0.12,0.65-0.31,3.31,0.35,3.7c1.6,0.8,3.94-0.1,3.98-2h0.39l-0.18,2.69h-7.16v-0.42
				c0.84,0,1.35-0.12,1.31-1.05c0,0,0-5.8,0-5.8c0.04-0.93-0.47-1.05-1.31-1.05v-0.42H94.61z"/>
      <path d="M98.45,36.04v2.69c-0.04,0.92,0.47,1.05,1.31,1.05v0.42h-3.92v-0.42c0.84,0,1.35-0.12,1.31-1.05c0,0,0-5.8,0-5.8
				c0.04-0.92-0.48-1.05-1.31-1.05v-0.42c1.19,0.03,3.92-0.08,4.97,0.12c2.06,0.14,2.52,3.18,0.75,4.14
				C100.99,36.09,99.31,36.04,98.45,36.04z M98.45,35.64c1.38,0.16,2.89-0.23,2.8-1.91c0.15-1.73-1.4-2.06-2.8-1.88V35.64z"/>
      <path d="M111.31,31.49l0.13,3.14h-0.42c-0.33-3.18-4.87-4.09-5.81-0.81c-1.83,4.48,3.36,8.69,6.09,3.81l0.47,0.37
				c-1.44,3.32-6.89,3.19-8.05-0.28c-1.76-4.18,3.18-8.41,6.92-5.58c0.08-0.13,0.17-0.34,0.29-0.65H111.31z"/>
      <path d="M119.04,33.76l-4.34,4.97c-0.04,0.92,0.47,1.05,1.3,1.05v0.42h-3.92v-0.42c0.84,0,1.35-0.12,1.31-1.05c0,0,0-5.8,0-5.8
				c0.04-0.92-0.48-1.05-1.31-1.05v-0.42h3.92v0.42c-0.84-0.01-1.4,0.17-1.3,1.05c0,0,0,5.02,0,5.02l4.34-5.02
				c0.04-0.88-0.51-1.05-1.3-1.05v-0.42h3.92v0.42c-0.87-0.01-1.39,0.17-1.31,1.05c0,0,0,5.8,0,5.8c-0.03,0.93,0.47,1.05,1.31,1.05
				v0.42h-3.92v-0.42c0.81,0,1.35-0.15,1.3-1.05C119.04,38.73,119.04,33.76,119.04,33.76z"/>
      <path d="M128.01,40.19h-3.89v-0.42c0.83,0,1.35-0.13,1.31-1.05c0,0,0-6.82,0-6.82c-1.42-0.09-2.93-0.09-3.19,1.67h-0.42
				l0.23-2.12h8.03l0.24,2.12h-0.39c-0.3-1.75-1.77-1.77-3.21-1.67v6.82c-0.04,0.91,0.48,1.05,1.3,1.05V40.19z"/>
      <path d="M136.95,31.46l0.23,2.14h-0.39c-0.21-1.96-2.21-1.74-3.66-1.7v3.42c0.92,0.05,2.07,0.04,2.04-1.2h0.42v2.95h-0.42
				c0-1.36-0.97-1.33-2.04-1.28c0.12,0.65-0.31,3.31,0.35,3.7c1.6,0.8,3.94-0.1,3.98-2h0.39l-0.18,2.69h-7.16v-0.42
				c0.84,0,1.35-0.12,1.31-1.05c0,0,0-5.8,0-5.8c0.04-0.93-0.47-1.05-1.31-1.05v-0.42H136.95z"/>
      <path d="M144.13,40.19h-3.89v-0.42c0.83,0,1.35-0.13,1.31-1.05c0,0,0-6.82,0-6.82c-1.42-0.09-2.93-0.09-3.19,1.67h-0.42
				l0.23-2.12h8.03l0.24,2.12h-0.39c-0.3-1.75-1.77-1.77-3.21-1.67v6.82c-0.04,0.91,0.48,1.05,1.3,1.05V40.19z"/>
		</g>
	</g>
    <g>
		<g>
			<path d="M52.93,46.96h-0.38v-2.58h-1.43v2.58h-0.38v-2.9h2.19V46.96z"/>
      <path d="M54.01,45.82v1.13h-0.38v-2.9c0.47,0.03,1.48-0.13,1.81,0.24C56.32,45.42,55.06,46.01,54.01,45.82z M54.01,45.51
				c0.46-0.02,1.35,0.15,1.32-0.56c0.03-0.7-0.86-0.57-1.32-0.58V45.51z"/>
      <path
        d="M58.02,44.06h0.38v2.9h-0.38v-2.23l-1.43,2.23h-0.38v-2.9h0.38v2.23L58.02,44.06z"/>
      <path d="M62.32,46.96h-0.38v-2.58h-1.43v2.58h-0.38v-2.9h2.19V46.96z"/>
      <path d="M63.4,45.82v1.13h-0.38v-2.9c0.47,0.03,1.48-0.13,1.81,0.24C65.71,45.42,64.45,46.01,63.4,45.82z M63.4,45.51
				c0.46-0.02,1.35,0.15,1.32-0.56c0.03-0.7-0.86-0.57-1.32-0.58V45.51z"/>
      <path d="M66.91,46.2H65.7l-0.27,0.76h-0.39l1.11-2.9h0.33l1.11,2.9h-0.39L66.91,46.2z M65.82,45.89h0.99l-0.49-1.36L65.82,45.89z
				"/>
      <path d="M67.97,46.96v-2.9c0.42,0.02,1.36-0.1,1.66,0.19c0.37,0.29,0.3,1.02-0.19,1.18c0.57,0.13,0.66,0.97,0.25,1.3
				C69.38,47.07,68.41,46.93,67.97,46.96z M68.36,45.3c1.52,0.21,1.56-1.15,0-0.92V45.3z M68.36,45.6v1.04
				c0.42-0.01,1.23,0.12,1.21-0.52C69.62,45.48,68.78,45.61,68.36,45.6z"/>
      <path
        d="M72.34,44.06h0.38v2.9h-0.38v-2.23l-1.43,2.23h-0.38v-2.9h0.38v2.23L72.34,44.06z"/>
      <path d="M75.36,44.37h-0.93v2.58h-0.38v-2.58h-0.93v-0.31h2.24V44.37z"/>
      <path
        d="M77.43,45.62h-1.26v1.03h1.46v0.31h-1.84v-2.9h1.82v0.31h-1.44v0.93h1.26V45.62z"/>
      <path
        d="M80.3,44.06v2.9h-0.38v-2.58h-1.04c-0.13,0.84,0.25,2.68-1.01,2.58v-0.31c0.94-0.08,0.48-1.91,0.65-2.58H80.3z"/>
      <path d="M81.36,45.24c0.99-0.19,2.29,0.41,1.43,1.47c-0.33,0.37-1.36,0.21-1.81,0.24v-2.9h0.38V45.24z M81.36,45.56v1.09
				c0.45-0.01,1.33,0.14,1.3-0.56C82.69,45.41,81.8,45.57,81.36,45.56z"/>
      <path d="M85.68,46.04c-0.27,1.7-2.62,0.9-2.23-0.67c-0.19-1.45,2.1-1.92,2.23-0.37h-0.38c-0.13-1.14-1.64-0.66-1.46,0.38
				c-0.29,1.1,1.17,1.99,1.46,0.66H85.68z"/>
      <path d="M88.14,44.37h-0.93v2.58h-0.38v-2.58H85.9v-0.31h2.24V44.37z"/>
      <path d="M88.57,46.96v-2.9c0.42,0.02,1.36-0.1,1.66,0.19c0.37,0.29,0.3,1.02-0.19,1.18c0.57,0.13,0.66,0.97,0.25,1.3
				C89.98,47.07,89.01,46.93,88.57,46.96z M88.95,45.3c1.52,0.21,1.56-1.15,0-0.92V45.3z M88.95,45.6v1.04
				c0.42-0.01,1.23,0.12,1.21-0.52C90.22,45.48,89.38,45.61,88.95,45.6z"/>
      <path
        d="M92.75,45.62h-1.26v1.03h1.46v0.31h-1.84v-2.9h1.82v0.31h-1.44v0.93h1.26V45.62z"/>
      <path d="M94.82,45.82v1.13h-0.38v-2.9c0.47,0.03,1.48-0.13,1.81,0.24C97.12,45.42,95.86,46.01,94.82,45.82z M94.82,45.51
				c0.46-0.02,1.35,0.15,1.32-0.56c0.03-0.7-0.86-0.57-1.32-0.58V45.51z"/>
      <path d="M99.23,45.6c0.13,1.96-2.65,1.7-2.33-0.18C96.79,43.46,99.56,43.71,99.23,45.6z M98.85,45.42
				c0.06-1.58-1.82-1.27-1.57,0.19C97.23,47.17,99.11,46.9,98.85,45.42z"/>
      <path d="M101.94,46.04c-0.26,1.7-2.62,0.9-2.23-0.67c-0.19-1.45,2.1-1.92,2.23-0.37h-0.38c-0.13-1.14-1.64-0.66-1.46,0.38
				c-0.29,1.1,1.17,1.99,1.46,0.66H101.94z"/>
      <path d="M104.59,46.04c-0.26,1.7-2.62,0.9-2.23-0.67c-0.19-1.45,2.1-1.92,2.23-0.37h-0.38c-0.13-1.14-1.64-0.66-1.46,0.38
				c-0.29,1.1,1.17,1.99,1.46,0.66H104.59z"/>
      <path
        d="M106.94,44.06h0.38v2.9h-0.38v-2.23l-1.43,2.23h-0.38v-2.9h0.38v2.23L106.94,44.06z"/>
      <path d="M109.84,44.06h0.38v2.9h-0.38v-2.23l-1.43,2.23h-0.38v-2.9h0.38v2.23L109.84,44.06z M109.74,43.34
				c0.03,0.71-1.22,0.71-1.19,0h0.3c-0.03,0.39,0.62,0.39,0.59,0H109.74z"/>
      <path d="M113.05,46.04c-0.26,1.7-2.62,0.9-2.23-0.67c-0.19-1.45,2.1-1.92,2.23-0.37h-0.38c-0.13-1.14-1.64-0.66-1.46,0.38
				c-0.29,1.1,1.17,1.99,1.46,0.66H113.05z"/>
      <path
        d="M114.33,45.66h-0.35v1.3h-0.38v-2.9h0.38v1.28h0.3l1.01-1.28h0.48l-1.11,1.4l1.19,1.49h-0.47L114.33,45.66z"/>
      <path d="M118.36,45.6c0.13,1.96-2.65,1.7-2.33-0.18C115.92,43.46,118.68,43.71,118.36,45.6z M117.98,45.42
				c0.06-1.58-1.82-1.27-1.57,0.19C116.36,47.17,118.23,46.9,117.98,45.42z"/>
      <path d="M120.76,44.06h0.38v2.9h-0.38v-2.23l-1.43,2.23h-0.38v-2.9h0.38v2.23L120.76,44.06z M120.65,43.34
				c0.03,0.71-1.22,0.71-1.19,0h0.3c-0.03,0.39,0.62,0.39,0.59,0H120.65z"/>
      <path d="M124.28,44.35c1.61-0.12,1.6,2.45,0,2.34v0.39h-0.37v-0.39c-1.61,0.12-1.61-2.46,0-2.34v-0.41h0.37V44.35z M123.85,44.65
				c-1.11-0.06-1.06,1.87,0.06,1.73v-1.73H123.85z M124.28,44.65v1.73C125.42,46.51,125.43,44.53,124.28,44.65z"/>
      <path
        d="M127.63,45.62h-1.26v1.03h1.46v0.31h-1.84v-2.9h1.82v0.31h-1.44v0.93h1.26V45.62z"/>
      <path d="M130.92,47.67h-0.38v-0.71h-2.08v0.71h-0.38l0-1.02h0.24c0.53-0.6,0.43-1.82,0.5-2.58h1.73v2.58h0.38L130.92,47.67z
				 M128.74,46.65h1.41v-2.27h-0.98C129.14,45.1,129.16,46.08,128.74,46.65z"/>
      <path
        d="M133.01,45.62h-1.26v1.03h1.46v0.31h-1.84v-2.9h1.82v0.31h-1.44v0.93h1.26V45.62z"/>
      <path d="M134.07,45.82v1.13h-0.38v-2.9c0.47,0.03,1.48-0.13,1.81,0.24C136.38,45.42,135.12,46.01,134.07,45.82z M134.07,45.51
				c0.46-0.02,1.35,0.15,1.32-0.56c0.03-0.7-0.86-0.57-1.32-0.58V45.51z"/>
      <path d="M137.59,46.2h-1.21l-0.27,0.76h-0.39l1.11-2.9h0.33l1.11,2.9h-0.39L137.59,46.2z M136.49,45.89h0.99l-0.49-1.36
				L136.49,45.89z"/>
      <path
        d="M138.66,44.06h0.38v2.58h1.43v-2.58h0.38v2.58h0.3l-0.04,1.02h-0.34v-0.7h-2.12V44.06z"/>
      <path
        d="M143.45,44.06h0.38v2.9h-0.38v-2.23l-1.43,2.23h-0.38v-2.9h0.38v2.23L143.45,44.06z"/>
      <path
        d="M146.36,44.06h0.38v2.9h-0.38v-2.23l-1.43,2.23h-0.38v-2.9h0.38v2.23L146.36,44.06z"/>
		</g>
	</g>
    <path
      d="M2.31,46.75c11.26-1.58,22.6-6.36,30.86-15.5l0,0c-0.88,3.25-5.68,11.55-10.32,15.5H3.08H2.31z"/>

  </symbol>

  <symbol id="en" viewBox="0 0 150 50" stroke="none">

	<path d="M27.05,46.72c2.66,0,8.63,0,11.24,0c1.29-4.59,2.24-14.43,3.6-29.31c-1.67,4.66-5.53,9.88-5.53,9.88
		S32.75,40.84,27.05,46.72z"/>
    <path
      d="M45.37,1.44c0,2.72-1.17,9.7-2.15,12.09l-1.97,33.19c0.87,0,3.29,0,4.19,0L45.37,1.44z"/>
    <g>
		<path d="M56.64,19.8v3.27h-0.43c0.13-1.44-1.11-1.52-2.21-1.43v3.21c-0.04,1.01,0.52,1.15,1.43,1.15v0.46h-4.27v-0.46
			c0.92,0,1.48-0.13,1.43-1.15c0,0,0-6.36,0-6.36c0.04-1.01-0.52-1.15-1.43-1.15v-0.46h6.99l0.26,2.32h-0.43
			c-0.3-2.13-2.37-1.88-3.99-1.83v3.78c1.02,0.03,2.3,0.15,2.21-1.35H56.64z"/>
      <path d="M62.95,26.45h-4.3v-0.46c0.92,0,1.48-0.13,1.43-1.15c0,0,0-6.36,0-6.36c0.04-1.02-0.51-1.15-1.43-1.15v-0.46h4.3v0.46
			c-0.92-0.01-1.52,0.2-1.43,1.15c0,0,0,6.36,0,6.36c-0.04,1.01,0.52,1.15,1.43,1.15V26.45z"/>
      <path d="M66.27,16.88c0.35,0.54,5.22,7.07,5.22,7.45c-0.04-0.61-0.03-4.86-0.03-5.56c0.12-1.04-0.47-1.32-1.32-1.43v-0.46h3.3
			v0.46c-1.01,0.01-1.37,0.43-1.38,1.43l0,7.77h-0.6c-0.74-1.08-5.5-7.52-6.02-8.55v6.08c-0.04,1.12,0.15,1.9,1.4,1.92v0.46h-3.41
			v-0.46c1.08-0.04,1.42-0.47,1.43-1.55c0,0,0-5.96,0-5.96c0.04-1.01-0.52-1.15-1.43-1.15v-0.46H66.27z"/>
      <path d="M79.2,16.73c0.72,0.86,3.33,9.77,4.96,9.26v0.46h-3.96v-0.46c2.21,0.3,0.5-1.85,0.26-2.78h-3.81
			c-0.25,0.97-1.89,3.05,0.34,2.78v0.46h-3.32v-0.46c0.85-0.02,1.24-0.15,1.57-0.94c0,0,3.44-8.31,3.44-8.31H79.2z M80.18,22.61
			c-0.27-0.69-1.5-3.61-1.63-4.19c0.02,0.03-1.6,4.04-1.66,4.19H80.18z"/>
      <path d="M87.26,16.88c0.35,0.54,5.22,7.07,5.22,7.45c-0.04-0.61-0.03-4.86-0.03-5.56c0.12-1.04-0.47-1.32-1.32-1.43v-0.46h3.3
			v0.46c-1.01,0.01-1.37,0.43-1.38,1.43v7.77h-0.6c-0.74-1.08-5.5-7.52-6.02-8.55v6.08c-0.04,1.12,0.15,1.9,1.4,1.92v0.46h-3.41
			v-0.46c1.08-0.04,1.42-0.47,1.43-1.55c0,0,0-5.96,0-5.96c0.04-1.01-0.52-1.15-1.43-1.15v-0.46H87.26z"/>
      <path d="M104.08,16.9l0.14,3.44h-0.46c-0.96-4.99-7.14-3.61-6.71,1.2c-0.43,4.43,5.13,6.22,7.02,2.09l0.51,0.4
			c-1.58,3.64-7.55,3.5-8.82-0.31c-1.94-4.58,3.48-9.22,7.59-6.12c0.09-0.14,0.19-0.38,0.32-0.71H104.08z"/>
      <path d="M109.24,26.45h-4.3v-0.46c0.92,0,1.48-0.13,1.43-1.15c0,0,0-6.36,0-6.36c0.04-1.02-0.51-1.15-1.43-1.15v-0.46h4.3v0.46
			c-0.92-0.01-1.52,0.2-1.43,1.15c0,0,0,6.36,0,6.36c-0.04,1.01,0.52,1.15,1.43,1.15V26.45z"/>
      <path d="M115.01,16.73c0.72,0.86,3.33,9.77,4.96,9.26v0.46h-3.96v-0.46c2.21,0.3,0.5-1.85,0.26-2.78h-3.81
			c-0.25,0.97-1.89,3.05,0.34,2.78v0.46h-3.32v-0.46c0.85-0.02,1.24-0.15,1.57-0.94c0,0,3.44-8.31,3.44-8.31H115.01z M115.98,22.61
			c-0.27-0.69-1.5-3.61-1.63-4.19c0.02,0.03-1.6,4.04-1.66,4.19H115.98z"/>
      <path d="M128.25,23.5l-0.17,2.95h-7.86v-0.46c0.92,0,1.48-0.13,1.43-1.15c0,0,0-6.36,0-6.36c0.04-1.01-0.52-1.15-1.43-1.15v-0.46
			h4.3v0.46c-0.92-0.01-1.53,0.19-1.43,1.15c0,0,0,6.22,0,6.22c0.08,2.46,4.9,1.23,4.76-1.2H128.25z"/>
	</g>
    <g>
		<g>
			<path d="M56.83,31.88h3.16v0.39c-3.48-0.36,1.25,8.76-4,8.55c-4.72,0.55-3.26-4.57-3.47-7.5c0.04-0.93-0.47-1.05-1.31-1.05v-0.39
				h3.92v0.39c-0.7-0.06-1.39,0.17-1.31,1.05c0.26,1.65-0.76,5.93,1.02,6.83c1.83,0.78,3.57-0.47,3.29-2.52c0,0,0-4.24,0-4.24
				c0.04-0.88-0.5-1.11-1.31-1.12V31.88z"/>
      <path d="M62.94,31.86c0.32,0.49,4.76,6.44,4.76,6.8c-0.04-0.55-0.03-4.43-0.03-5.07c0.11-0.95-0.43-1.21-1.2-1.31v-0.42h3.01
				v0.42c-0.92,0.01-1.25,0.4-1.25,1.31c0,0,0,7.08,0,7.08h-0.55c-0.68-0.99-5.01-6.86-5.49-7.79v5.54
				c-0.04,1.02,0.14,1.73,1.28,1.75v0.42h-3.11v-0.42c0.99-0.04,1.3-0.43,1.31-1.41c0,0,0-5.44,0-5.44
				c0.04-0.92-0.48-1.05-1.31-1.05v-0.42H62.94z"/>
      <path d="M73.84,40.59h-3.92v-0.42c0.84,0,1.35-0.12,1.31-1.05c0,0,0-5.8,0-5.8c0.04-0.93-0.47-1.05-1.31-1.05v-0.42h3.92v0.42
				c-0.84-0.01-1.39,0.18-1.31,1.05c0,0,0,5.8,0,5.8c-0.04,0.92,0.47,1.05,1.31,1.05V40.59z"/>
      <path d="M79.04,40.74h-0.47c-0.68-0.82-2.98-8.84-4.52-8.47v-0.42h3.61v0.42c-0.75-0.05-1.3,0.12-0.94,0.86
				c0.29,0.72,2.3,5.38,2.46,6.01c0.04-0.08,0.08-0.18,0.11-0.29l2.3-5.72c0.4-0.79-0.38-0.91-0.99-0.86v-0.42h3.01v0.42
				c-0.74,0.05-1.11,0.17-1.41,0.86C82.18,33.14,79.04,40.74,79.04,40.74z"/>
      <path d="M90.29,31.86L90.52,34h-0.39c-0.21-1.96-2.21-1.74-3.66-1.7v3.42c0.92,0.05,2.07,0.04,2.04-1.2h0.42v2.95h-0.42
				c0-1.36-0.97-1.33-2.04-1.28c0.12,0.65-0.31,3.31,0.35,3.7c1.6,0.8,3.94-0.1,3.98-2h0.39l-0.18,2.69h-7.16v-0.42
				c0.84,0,1.35-0.12,1.31-1.05c0,0,0-5.8,0-5.8c0.04-0.93-0.47-1.05-1.31-1.05v-0.42H90.29z"/>
      <path d="M94.13,36.46v2.66c-0.04,0.92,0.47,1.05,1.3,1.05v0.42h-3.92v-0.42c0.84,0,1.35-0.12,1.31-1.05c0,0,0-5.8,0-5.8
				c0.04-0.92-0.48-1.05-1.31-1.05v-0.42c1.41,0.1,5.06-0.34,6.09,0.57c1.81,1.34,0.4,3.95-1.62,3.84c2.31,0.18,2.32,3.63,4.47,3.9
				v0.42h-1.99C96.96,39.38,96.6,35.99,94.13,36.46z M94.13,36.04c1.47,0.12,3.02-0.07,2.87-1.94c0.11-1.69-1.47-1.95-2.87-1.83
				V36.04z"/>
      <path d="M105.89,31.78v2.35h-0.39c-0.05-2.98-5.15-2.51-3.08,0.2c0.67,0.53,2.83,1.4,3.43,2.12c2.23,2.79-1.93,6.04-4.4,3.4
				c-0.15,0.26-0.24,0.51-0.29,0.73h-0.42v-2.74h0.42c0.16,3.49,6.14,2.85,3.76-0.42c-0.68-0.6-2.77-1.39-3.41-2.07
				c-2.16-2.37,1.82-5.01,3.78-3.05c0.09-0.11,0.19-0.29,0.29-0.52H105.89z"/>
      <path d="M111.01,40.59h-3.92v-0.42c0.84,0,1.35-0.12,1.31-1.05c0,0,0-5.8,0-5.8c0.04-0.93-0.47-1.05-1.31-1.05v-0.42h3.92v0.42
				c-0.84-0.01-1.39,0.18-1.3,1.05c0,0,0,5.8,0,5.8c-0.04,0.92,0.47,1.05,1.3,1.05V40.59z"/>
      <path d="M117.42,40.59h-3.89v-0.42c0.83,0,1.35-0.13,1.31-1.05c0,0,0-6.82,0-6.82c-1.42-0.09-2.93-0.09-3.19,1.67h-0.42
				l0.23-2.12h8.03l0.24,2.12h-0.39c-0.3-1.75-1.77-1.77-3.21-1.67v6.82c-0.04,0.91,0.48,1.05,1.3,1.05V40.59z"/>
      <path d="M124.73,36.69c0.16,1.1-0.67,3.78,1.3,3.48v0.42h-3.89v-0.42c1.99,0.33,1.14-2.38,1.31-3.48
				c-0.77-0.82-2.3-4.67-3.77-4.42v-0.42h3.77v0.42c-0.6-0.01-1.25,0-0.84,0.71c0,0,1.85,3.22,1.85,3.22l1.96-3.22
				c0.4-0.74-0.47-0.69-1.1-0.71v-0.42h3.14v0.42C126.83,32.02,125.55,35.77,124.73,36.69z"/>
		</g>
	</g>
    <g>
		<g>
			<path d="M51.99,44.31c-0.07,0.63,0.33,2.22-0.77,2.14c-1.1,0.09-0.69-1.52-0.76-2.14h0.28c0.1,0.43-0.33,1.99,0.49,1.91
				c0.82,0.08,0.38-1.49,0.49-1.91H51.99z"/>
      <path
        d="M54.06,46.42h-0.28l-1.06-1.63v1.63h-0.28v-2.11h0.28l1.07,1.64v-1.64h0.28V46.42z"/>
      <path d="M54.55,46.42v-2.11c0.77-0.11,1.65,0.18,1.53,1.12C56.13,46.32,55.25,46.51,54.55,46.42z M54.83,44.54v1.66
				C56.15,46.47,56.16,44.25,54.83,44.54z"/>
      <path
        d="M57.69,45.45h-0.92v0.75h1.06v0.23H56.5v-2.11h1.33v0.23h-1.05v0.68h0.92V45.45z"/>
      <path d="M58.96,45.57h-0.5v0.85h-0.28v-2.11c0.33,0.02,1.01-0.08,1.25,0.16c0.32,0.27,0.23,0.91-0.21,1.04
				c0,0.02,0.51,0.89,0.5,0.91h-0.3L58.96,45.57z M58.47,45.34c1.18,0.2,1.18-1,0-0.8V45.34z"/>
      <path d="M62.15,44.54h-0.68v1.88H61.2v-1.88h-0.68v-0.23h1.63V44.54z"/>
      <path
        d="M64.09,46.42h-0.28v-0.98h-1.07v0.98h-0.28v-2.11h0.28v0.91h1.07v-0.91h0.28V46.42z"/>
      <path
        d="M65.78,45.45h-0.92v0.75h1.06v0.23h-1.34v-2.11h1.33v0.23h-1.05v0.68h0.92V45.45z"/>
      <path d="M68.57,46.14c-1.09,1.06-2.16-0.64-1.41-1.6c0.39-0.47,1.36-0.3,1.41,0.39h-0.28c-1.08-1.75-1.72,2.15,0,1.14V45.6h-0.49
				v-0.23h0.77V46.14z"/>
      <path d="M70.66,45.43c0.09,1.43-1.93,1.24-1.7-0.13C68.88,43.87,70.9,44.05,70.66,45.43z M70.38,45.3
				c0.07-1.13-1.35-0.91-1.14,0.14C69.17,46.56,70.6,46.36,70.38,45.3z"/>
      <path
        d="M71.75,46.05l0.6-1.74h0.3l-0.78,2.11h-0.25l-0.78-2.11h0.3L71.75,46.05z"/>
      <path
        d="M74.13,45.45h-0.92v0.75h1.06v0.23h-1.34v-2.11h1.33v0.23h-1.05v0.68h0.92V45.45z"/>
      <path d="M75.4,45.57h-0.5v0.85h-0.28v-2.11c0.33,0.02,1.01-0.08,1.25,0.16c0.32,0.27,0.23,0.91-0.21,1.04
				c0,0.02,0.51,0.89,0.5,0.91h-0.3L75.4,45.57z M74.91,45.34c1.18,0.2,1.18-1,0-0.8V45.34z"/>
      <path
        d="M78.08,46.42H77.8l-1.06-1.63v1.63h-0.28v-2.11h0.28l1.07,1.64v-1.64h0.28V46.42z"/>
      <path d="M78.93,44.31l0.69,1.72l0.69-1.72h0.36v2.11H80.4c-0.01-0.42,0.01-1.29,0.03-1.71l-0.69,1.71h-0.21l-0.69-1.71
				c0.02,0.43,0.03,1.28,0.03,1.71h-0.28v-2.11H78.93z"/>
      <path
        d="M82.36,45.45h-0.92v0.75h1.06v0.23h-1.34v-2.11h1.33v0.23h-1.05v0.68h0.92V45.45z"/>
      <path
        d="M84.48,46.42H84.2l-1.06-1.63v1.63h-0.28v-2.11h0.28l1.07,1.64v-1.64h0.28V46.42z"/>
      <path d="M86.39,44.54h-0.68v1.88h-0.28v-1.88h-0.68v-0.23h1.63V44.54z"/>
      <path d="M89.01,45.43c0.09,1.43-1.93,1.24-1.7-0.13C87.23,43.87,89.25,44.05,89.01,45.43z M88.73,45.3
				c0.07-1.13-1.35-0.91-1.14,0.14C87.52,46.56,88.94,46.36,88.73,45.3z"/>
      <path
        d="M90.59,45.49h-0.89v0.93h-0.28v-2.11h1.31v0.23h-1.03v0.72h0.89V45.49z"/>
      <path d="M93.21,44.54h-0.68v1.88h-0.28v-1.88h-0.68v-0.23h1.63V44.54z"/>
      <path
        d="M95.14,46.42h-0.28v-0.98H93.8v0.98h-0.28v-2.11h0.28v0.91h1.06v-0.91h0.28V46.42z"/>
      <path
        d="M96.83,45.45h-0.92v0.75h1.06v0.23h-1.34v-2.11h1.33v0.23h-1.05v0.68h0.92V45.45z"/>
      <path d="M98.84,45.57h-0.5v0.85h-0.28v-2.11c0.33,0.02,1.01-0.08,1.25,0.16c0.32,0.27,0.23,0.91-0.21,1.04
				c0,0.02,0.51,0.89,0.5,0.91h-0.3L98.84,45.57z M98.34,45.34c1.18,0.2,1.18-1,0-0.8V45.34z"/>
      <path d="M101.38,44.31c-0.07,0.63,0.33,2.22-0.77,2.14c-1.1,0.09-0.69-1.52-0.76-2.14h0.28c0.1,0.43-0.33,1.99,0.49,1.91
				c0.82,0.08,0.38-1.49,0.49-1.91H101.38z"/>
      <path d="M102.44,45.48c-1.83-0.48,0.54-2.1,0.78-0.56h-0.28c0.05-0.68-1.3-0.43-0.79,0.15c0.25,0.19,0.84,0.22,1.01,0.54
				c0.48,0.99-1.46,1.17-1.46,0.2h0.28C102.13,46.81,103.75,45.76,102.44,45.48z"/>
      <path d="M104.21,45.48c-1.83-0.48,0.54-2.1,0.78-0.56h-0.28c0.05-0.68-1.3-0.43-0.79,0.15c0.25,0.19,0.84,0.22,1.01,0.54
				c0.48,0.99-1.46,1.17-1.46,0.2h0.28C103.89,46.81,105.51,45.76,104.21,45.48z"/>
      <path d="M105.65,46.42h-0.28v-2.11h0.28V46.42z"/>
      <path d="M107.35,45.87h-0.89l-0.2,0.55h-0.29l0.81-2.11h0.24l0.81,2.11h-0.29L107.35,45.87z M106.55,45.64h0.72l-0.36-0.99
				L106.55,45.64z"/>
      <path
        d="M109.74,46.42h-0.28l-1.06-1.63v1.63h-0.28v-2.11h0.28l1.07,1.64v-1.64h0.28V46.42z"/>
      <path
        d="M112.14,45.49h-0.89v0.93h-0.28v-2.11h1.31v0.23h-1.03v0.72h0.89V45.49z"/>
      <path
        d="M113.81,45.45h-0.92v0.75h1.06v0.23h-1.34v-2.11h1.33v0.23h-1.05v0.68h0.92V45.45z"/>
      <path d="M114.31,46.42v-2.11c0.77-0.11,1.65,0.18,1.53,1.12C115.89,46.32,115.01,46.51,114.31,46.42z M114.58,44.54v1.66
				C115.91,46.47,115.91,44.25,114.58,44.54z"/>
      <path
        d="M117.45,45.45h-0.92v0.75h1.06v0.23h-1.34v-2.11h1.33v0.23h-1.05v0.68h0.92V45.45z"/>
      <path d="M118.72,45.57h-0.5v0.85h-0.28v-2.11c0.33,0.02,1.01-0.08,1.25,0.16c0.32,0.27,0.23,0.91-0.21,1.04
				c0,0.02,0.51,0.89,0.5,0.91h-0.3L118.72,45.57z M118.22,45.34c1.18,0.2,1.18-1,0-0.8V45.34z"/>
      <path d="M120.94,45.87h-0.89l-0.2,0.55h-0.29l0.81-2.11h0.24l0.81,2.11h-0.29L120.94,45.87z M120.14,45.64h0.72l-0.36-0.99
				L120.14,45.64z"/>
      <path d="M122.98,44.54h-0.68v1.88h-0.28v-1.88h-0.68v-0.23h1.63V44.54z"/>
      <path d="M123.6,46.42h-0.28v-2.11h0.28V46.42z"/>
      <path d="M125.73,45.43c0.09,1.43-1.93,1.24-1.7-0.13C123.95,43.87,125.97,44.05,125.73,45.43z M125.45,45.3
				c0.07-1.13-1.35-0.91-1.14,0.14C124.24,46.56,125.67,46.36,125.45,45.3z"/>
      <path
        d="M127.77,46.42h-0.28l-1.06-1.63v1.63h-0.28v-2.11h0.28l1.07,1.64v-1.64h0.28V46.42z"/>
		</g>
	</g>
    <path
      d="M2.26,46.52c11.26-1.58,22.6-6.36,30.86-15.5l0,0c-0.88,3.25-5.68,11.55-10.32,15.5H3.03H2.26z"/>

  </symbol>
</svg>
