<?xml version="1.0" encoding="utf-8"?>
<svg xmlns="http://www.w3.org/2000/svg" xml:space="preserve">
  <symbol id="0" viewBox="0 0 50 50" stroke="none">
    <path d="M42.62,17.96c0.23,0.11,0.52,0.1,0.74-0.02l2.05-1.18c0.23-0.13,0.38-0.37,0.39-0.63L46,13.28
		c0.02-0.32-0.15-0.62-0.44-0.76l-2.55-1.26c-0.24-0.12-0.52-0.11-0.74,0.02l-2.05,1.18c-0.23,0.13-0.38,0.37-0.39,0.63l-0.16,2.42
		l-2.28,1.32l0.77-4.42l-1.56-0.27l-0.99,5.72l-2.95,1.7l0.71-7.52c0.09-0.66-0.72-1.13-1.25-0.72c0,0-5.86,4.15-5.86,4.15v-3.14
		l4.46-3.71L29.69,7.4l-3.44,2.87V7.64l2.02-1.35c0.22-0.15,0.35-0.39,0.35-0.66V3.27c0-0.26-0.13-0.51-0.35-0.66L25.9,1.03
		c-0.27-0.18-0.61-0.18-0.88,0l-2.37,1.58c-0.22,0.15-0.35,0.39-0.35,0.66v2.37c0,0.26,0.13,0.51,0.35,0.66l2.02,1.35v2.63
		L21.23,7.4l-1.01,1.21l4.46,3.71v3.14l-5.86-4.15c-0.14-0.1-0.32-0.15-0.49-0.14c-0.44,0.02-0.77,0.39-0.75,0.82l0.33,7.32
		l-2.96-1.71l-0.99-5.71l-1.56,0.27l0.76,4.42l-2.28-1.32l-0.16-2.42c-0.02-0.26-0.17-0.5-0.39-0.63l-2.05-1.18
		C8.04,10.89,7.76,10.88,7.52,11l-2.55,1.26c-0.29,0.14-0.46,0.44-0.44,0.76l0.18,2.84c0.02,0.26,0.17,0.5,0.4,0.63l2.05,1.18
		c0.22,0.13,0.51,0.14,0.74,0.02l2.17-1.08l2.28,1.32L8.15,19.5l0.55,1.48l5.45-2l2.91,1.68l-6.94,3.22
		c-0.17,0.08-0.31,0.22-0.39,0.39c-0.18,0.4,0,0.87,0.4,1.04l7.07,3.16l-2.86,1.65l-5.44-2l-0.54,1.48l4.21,1.55l-2.28,1.32
		L8.12,31.4c-0.24-0.12-0.52-0.11-0.74,0.02l-2.05,1.18c-0.23,0.13-0.38,0.37-0.39,0.63l-0.18,2.84c-0.02,0.32,0.15,0.62,0.44,0.76
		l2.55,1.26c0.23,0.11,0.52,0.1,0.74-0.02l2.05-1.18c0.23-0.13,0.38-0.37,0.39-0.63l0.16-2.43l2.28-1.31l-0.76,4.42l1.56,0.27
		l0.99-5.72l2.43-1.41l-0.8,7.06c0,0.03-0.01,0.06-0.01,0.09c-0.02,0.61,0.71,1,1.21,0.67c0,0,6.69-4.26,6.69-4.26v3.22l-4.46,3.71
		l1.01,1.21l3.44-2.87v2.63l-2.02,1.35c-0.22,0.15-0.35,0.39-0.35,0.66v2.37c0,0.26,0.13,0.51,0.35,0.66
		c0.41,0.21,2.49,1.81,2.81,1.71c0.29,0.12,2.48-1.55,2.81-1.71c0.22-0.15,0.35-0.39,0.35-0.66v-2.37c0-0.26-0.13-0.51-0.35-0.66
		l-2.02-1.35v-2.63l3.44,2.87l1.01-1.22l-4.46-3.71v-3.14l5.86,4.15c0.15,0.11,0.33,0.16,0.52,0.14c0.43-0.03,0.76-0.41,0.73-0.85
		l-0.58-7.44l2.61,1.51l0.99,5.71l1.56-0.27l-0.77-4.42l2.27,1.31l0.16,2.42c0.02,0.26,0.17,0.5,0.39,0.63l2.05,1.18
		c0.22,0.13,0.51,0.14,0.74,0.02l2.55-1.26c0.29-0.14,0.46-0.44,0.44-0.76l-0.18-2.84c-0.02-0.26-0.17-0.5-0.4-0.63l-2.05-1.18
		c-0.23-0.13-0.51-0.14-0.74-0.02l-2.17,1.08l-2.28-1.32l4.21-1.55l-0.55-1.48l-5.45,2.01l-2.55-1.47l7.15-3.08
		c0.62-0.25,0.63-1.19,0.01-1.44c0,0-6.97-3.17-6.97-3.17l2.57-1.48l5.44,2l0.54-1.49l-4.2-1.54l2.27-1.31L42.62,17.96z
		 M41.36,13.62l1.32-0.76l1.7,0.84l-0.12,1.9l-1.32,0.76l-1.7-0.84L41.36,13.62z M31.62,13.6l-0.66,6.94l-4.71,2.72V17.4L31.62,13.6
		z M23.88,3.69l1.58-1.05l1.58,1.05v1.53l-1.58,1.05l-1.58-1.05V3.69z M19.21,13.54l5.46,3.87v5.82l-5.16-2.98L19.21,13.54z
		 M7.59,16.1l-1.32-0.76l-0.12-1.89l1.7-0.84l1.32,0.76l0.12,1.9L7.59,16.1z M12.36,24.58l6.37-2.96l5.17,2.98l-5.01,2.89
		L12.36,24.58z M9.37,35.74L8.05,36.5l-1.7-0.84l0.12-1.9L7.79,33l1.7,0.84L9.37,35.74z M18.53,35.68l0.74-6.58l5.4-3.11v5.78
		L18.53,35.68z M27.04,45.5l-1.58,1.05l-1.58-1.05v-1.53l1.58-1.05l1.58,1.06V45.5z M31.65,35.62l-5.4-3.83v-5.83l4.87,2.81
		L31.65,35.62z M42.74,32.75l1.32,0.76l0.12,1.9l-1.7,0.84l-1.32-0.76l-0.12-1.9L42.74,32.75z M38.51,24.57l-6.59,2.85l-4.87-2.81
		l5.09-2.94L38.51,24.57z"/>
  </symbol>

  <symbol id="1" viewBox="0 0 50 50" stroke="none">
    <path d="M45.81,35.97l-2.07-1.19l1.46-0.63c0.4-0.17,0.59-0.64,0.42-1.04c-0.17-0.4-0.64-0.59-1.04-0.42L42.2,33.7
		c-0.06,0.02-0.1,0.07-0.15,0.1l-2.64-1.52l3.67-2.14c0,0,0,0,0,0c0.38-0.22,0.51-0.71,0.29-1.09c0,0,0,0,0,0
		c-0.22-0.38-0.71-0.51-1.09-0.29l-4.45,2.6l-2.45-1.41l3.1-1.53c0.39-0.2,0.56-0.67,0.36-1.07c-0.2-0.39-0.67-0.56-1.07-0.36
		l-3.96,1.96c-0.03,0.01-0.05,0.04-0.08,0.05l-2.52-1.46l3.33-1.72c0.15-0.08,0.27-0.19,0.34-0.34c0.2-0.39,0.05-0.87-0.34-1.07
		l-3.33-1.72l2.52-1.46c0.03,0.02,0.05,0.04,0.08,0.05l3.96,1.96c0,0,0,0,0.01,0c0.39,0.19,0.87,0.03,1.07-0.36
		c0.19-0.39,0.03-0.87-0.36-1.07l-3.1-1.53l2.45-1.41l4.45,2.6c0,0,0.01,0,0.01,0.01c0.38,0.22,0.87,0.09,1.09-0.29c0,0,0,0,0,0
		c0.22-0.38,0.09-0.87-0.29-1.09l-3.68-2.14l2.64-1.52c0.05,0.03,0.09,0.07,0.15,0.1l2.38,1.02c0.4,0.17,0.87-0.02,1.04-0.42
		c0.17-0.4-0.02-0.87-0.42-1.04l-1.46-0.62l2.07-1.19c0.38-0.22,0.51-0.71,0.29-1.09c-0.22-0.38-0.71-0.51-1.09-0.29l-2.07,1.2
		l0.19-1.58c0.05-0.44-0.26-0.83-0.7-0.89c-0.44-0.05-0.83,0.26-0.89,0.7l-0.31,2.57c-0.01,0.06,0.01,0.12,0.01,0.18l-2.63,1.52
		l-0.02-4.25c0-0.44-0.36-0.79-0.8-0.79c-0.44,0-0.8,0.36-0.8,0.8l0.02,5.16l-2.45,1.41l0.22-3.45c0.03-0.44-0.3-0.82-0.74-0.85
		c-0.44-0.03-0.82,0.3-0.85,0.74l-0.28,4.41c0,0.03,0.01,0.06,0.01,0.1l-2.41,1.39l0.46-4c0.02-0.19-0.02-0.38-0.13-0.53
		c-0.24-0.37-0.74-0.46-1.1-0.22l-3.54,2.36v-2.86l3.76-2.51c0,0,0,0,0,0c0.37-0.24,0.46-0.74,0.22-1.1c0,0,0,0,0,0
		c-0.24-0.37-0.74-0.46-1.1-0.22l-2.88,1.92v-2.83l4.48-2.56c0.38-0.22,0.51-0.7,0.3-1.09c-0.22-0.38-0.7-0.51-1.09-0.3L26.21,9.4
		V6.4l2.23-1.67c0.35-0.26,0.42-0.76,0.16-1.11c-0.26-0.35-0.76-0.42-1.11-0.16L26.21,4.4V2.02c0-0.44-0.36-0.8-0.8-0.8
		c-0.44,0-0.8,0.36-0.8,0.8V4.4l-1.27-0.96c-0.35-0.26-0.85-0.19-1.11,0.16c-0.26,0.35-0.19,0.85,0.16,1.11l2.23,1.67V9.4
		l-3.69-2.11c-0.38-0.22-0.87-0.09-1.09,0.3c0,0,0,0,0,0c-0.22,0.38-0.09,0.87,0.29,1.09l4.49,2.56v2.83l-2.88-1.92c0,0,0,0,0,0
		c-0.37-0.24-0.86-0.15-1.1,0.22c0,0,0,0,0,0c-0.24,0.37-0.14,0.86,0.22,1.1l3.76,2.51v2.86l-3.54-2.36
		c-0.16-0.1-0.35-0.15-0.53-0.13c-0.44,0.05-0.75,0.45-0.7,0.88l0.46,4l-2.41-1.39c0-0.03,0.01-0.06,0.01-0.09l-0.28-4.41
		c-0.03-0.44-0.41-0.77-0.85-0.74c-0.44,0.03-0.77,0.41-0.74,0.85l0.22,3.45l-2.45-1.41l0.02-5.17c0-0.44-0.36-0.8-0.8-0.8
		c-0.44,0-0.79,0.35-0.8,0.79l-0.02,4.25l-2.64-1.52c0-0.06,0.02-0.12,0.01-0.18L9.27,12.3c-0.05-0.44-0.45-0.75-0.89-0.7
		c-0.44,0.05-0.75,0.45-0.7,0.89l0.19,1.58l-2.07-1.19c-0.38-0.22-0.87-0.09-1.09,0.29c-0.22,0.38-0.09,0.87,0.29,1.09l2.07,1.19
		l-1.47,0.63c-0.4,0.17-0.59,0.64-0.42,1.04c0.17,0.4,0.64,0.59,1.04,0.42l2.38-1.02c0.06-0.02,0.1-0.07,0.15-0.1l2.64,1.52
		l-3.67,2.14c0,0,0,0,0,0c-0.38,0.22-0.51,0.71-0.29,1.09c0,0,0,0,0,0c0.22,0.38,0.71,0.5,1.09,0.28l4.46-2.6l2.45,1.42l-3.1,1.53
		c-0.39,0.2-0.56,0.67-0.36,1.07c0.2,0.39,0.67,0.55,1.06,0.36l3.96-1.95c0.03-0.02,0.05-0.04,0.08-0.06l2.52,1.45l-3.33,1.72
		c-0.15,0.08-0.27,0.19-0.34,0.34c-0.2,0.39-0.05,0.87,0.34,1.07l3.33,1.72l-2.52,1.46c-0.03-0.02-0.05-0.04-0.08-0.05l-3.96-1.96
		c-0.39-0.19-0.87-0.03-1.06,0.36c-0.19,0.39-0.03,0.87,0.36,1.07l3.1,1.53L13,31.36l-4.46-2.6c-0.38-0.22-0.87-0.09-1.09,0.29
		c0,0,0,0,0,0c-0.22,0.38-0.09,0.87,0.29,1.09l3.67,2.14l-2.63,1.52c-0.05-0.03-0.09-0.07-0.15-0.1l-2.38-1.02
		c-0.4-0.17-0.87,0.02-1.04,0.42c-0.17,0.4,0.01,0.87,0.42,1.04l1.46,0.62l-2.07,1.19c-0.38,0.22-0.51,0.71-0.29,1.09
		c0.22,0.38,0.71,0.51,1.09,0.29l2.07-1.2l-0.19,1.58c-0.05,0.44,0.26,0.83,0.7,0.89c0,0,0,0,0,0c0.44,0.05,0.83-0.26,0.89-0.7
		l0.31-2.57c0.01-0.06-0.01-0.12-0.01-0.18l2.64-1.52l0.02,4.25c0,0.44,0.36,0.79,0.8,0.79c0.44,0,0.8-0.36,0.8-0.8l-0.02-5.16
		l2.45-1.41l-0.22,3.46c-0.03,0.44,0.3,0.82,0.74,0.85c0,0,0,0,0,0c0.44,0.03,0.82-0.31,0.84-0.75l0.28-4.41
		c0-0.03-0.01-0.06-0.01-0.1l2.42-1.39l-0.46,4c0,0.03-0.01,0.06-0.01,0.09c0,0.44,0.36,0.8,0.8,0.8c0.16,0,0.31-0.05,0.44-0.14
		l3.54-2.36v2.88c-0.03,0.02-0.06,0.02-0.09,0.04l-3.67,2.45c0,0,0,0,0,0c-0.37,0.24-0.46,0.74-0.22,1.1c0,0,0,0,0,0
		c0.24,0.37,0.74,0.46,1.1,0.22l2.88-1.92v2.83l-4.48,2.56c-0.38,0.22-0.51,0.7-0.3,1.09c0.22,0.38,0.7,0.51,1.09,0.3l3.69-2.11
		v3.04c-0.05,0.03-0.11,0.05-0.16,0.08l-2.07,1.55c-0.35,0.26-0.42,0.76-0.16,1.11c0.26,0.35,0.76,0.42,1.11,0.16l1.27-0.96v2.39
		c0,0.44,0.36,0.8,0.8,0.8c0.44,0,0.8-0.36,0.8-0.8v-2.39l1.27,0.96c0.35,0.26,0.85,0.19,1.11-0.16c0.26-0.35,0.19-0.85-0.16-1.11
		l-2.07-1.55c-0.05-0.04-0.11-0.05-0.16-0.08v-3.04l3.69,2.11c0.38,0.22,0.87,0.09,1.09-0.3c0.22-0.38,0.09-0.87-0.3-1.09
		l-4.48-2.56v-2.83l2.88,1.92c0,0,0,0,0,0c0.37,0.24,0.86,0.15,1.1-0.22c0,0,0,0,0,0c0.24-0.37,0.15-0.86-0.22-1.1L26.3,34.3
		c-0.03-0.02-0.06-0.02-0.09-0.04v-2.88l3.54,2.36c0.16,0.1,0.35,0.15,0.53,0.13c0.44-0.05,0.75-0.45,0.7-0.88l-0.46-4l2.41,1.39
		c0,0.03-0.01,0.06-0.01,0.1l0.28,4.41c0,0,0,0,0,0c0.03,0.44,0.41,0.77,0.85,0.74c0.44-0.03,0.77-0.41,0.74-0.85l-0.22-3.45
		l2.45,1.41l-0.02,5.17c0,0.44,0.36,0.8,0.8,0.8c0.44,0,0.79-0.35,0.8-0.79l0.02-4.25l2.64,1.52c0,0.06-0.02,0.12-0.01,0.18
		l0.31,2.57c0.05,0.44,0.45,0.75,0.88,0.7c0.44-0.05,0.75-0.45,0.7-0.89l-0.19-1.58l2.07,1.2c0.38,0.22,0.87,0.09,1.09-0.29
		C46.33,36.67,46.2,36.19,45.81,35.97z M32.44,25.11l-2.87,1.48l-2.57-1.48l2.57-1.48L32.44,25.11z M29.21,18.76l-0.4,3.47l-2.6,1.5
		v-2.97L29.21,18.76z M21.63,18.76l2.99,1.99v2.97l-2.59-1.5L21.63,18.76z M18.39,25.11l2.87-1.48l2.56,1.48l-2.57,1.48L18.39,25.11
		z M21.63,31.46l0.4-3.47l2.59-1.5v2.97L21.63,31.46z M29.21,31.45l-3-1.99v-2.97l2.6,1.5L29.21,31.45z"/>
  </symbol>
</svg>
