<?xml version="1.0" encoding="utf-8"?>
<svg xmlns="http://www.w3.org/2000/svg" xml:space="preserve">
  <symbol id="vk" viewBox="0 0 100 100" fill="none">
	<path d="M5.96,21.682
		c0.026-0.003,0.053-0.004,0.079-0.004h11.117c1.396,0,2.486,0.919,2.967,2.153c0.012,0.031,0.022,0.063,0.03,0.095
		c1.367,5.608,11.971,30.804,18.216,29.806c1.381-0.221,1.414-5.814,1.414-10.056c0.157-8.131,0.088-13.397-4.714-19.327
		c-0.851-1.05,0-2.514,1.258-2.514h17.191c2.125,0,3.864,1.739,3.864,3.864v21.979c0,0.063,0.008,0.124,0.024,0.185
		c0.159,0.604,1.182,3.578,5.161-0.258c4.949-4.796,11.152-15.243,14.613-23.884c0.471-1.1,1.571-1.886,2.828-1.886h11.628
		c2.2,0,3.771,2.2,2.985,4.242l-1.244,3.266c-0.009,0.023-0.019,0.045-0.03,0.067c-15.695,31.382-20.526,12.863,1.394,40.616
		c1.516,2.12,1.637,2.604,2.242,3.814c1.1,2.043-0.634,4.719-2.991,4.719H80.793c-0.749,0.046-2.165-2.236-4.622-4.84
		c-3.9-4.134-9.497-9.536-12.191-11.187c-5.028-2.828-4.871,1.257-4.871,1.257c-0.091,7.964,1.778,15.506-9.404,14.615
		c-0.015-0.001-0.029-0.002-0.044-0.002C49.008,78.394,32.127,78,18.57,57.818C9.372,43.694-2.576,22.526,5.96,21.682z"/>
  </symbol>

  <symbol id="github" viewBox="0 0 100 100" fill="none">
	<path d="M85.444,30.549
		c-30.92-48.007-99.947-3.039-68.539,44.591c2.856,4.908,16.964,16.58,22.295,14.411c0.462-0.426,0.692-0.959,0.692-1.598
		c0-0.107-0.009-1.065-0.027-2.877c-0.018-1.812-0.027-3.392-0.027-4.741c-4.7,0.916-11.939,0.707-13.798-4.847
		c-0.783-2.015-2.465-5.01-4.528-5.967c-0.373-0.26-0.767-0.541-1.065-0.907c-1.626-1.721,1.127-1.739,2.397-1.438
		c4.95,1.387,4.845,5.117,8.178,7.378c2.768,1.855,6.197,1.231,8.923,0.08c0.32-2.381,1.19-4.209,2.61-5.488
		c-5.552-0.555-11.129-2.211-14.757-6.607c-4.762-6.478-5.824-18.303,0.321-24.561c-1.314-3.232-1.19-6.854,0.373-10.868
		c3.197-0.72,8.894,2.591,11.295,4.209c6.554-1.846,13.905-1.846,20.459,0c2.835-1.787,7.858-4.948,11.242-4.208
		c1.598,4.014,1.74,7.636,0.425,10.868c6.135,6.249,5.109,18.143,0.295,24.587c-3.685,4.349-9.216,6.029-14.785,6.581
		c4.221,2.968,2.409,14.146,2.77,18.805c0,0.638,0.222,1.171,0.666,1.597c0.444,0.425,1.145,0.55,2.104,0.372
		C86.982,82.733,98.626,51.881,85.444,30.549z"/>
  </symbol>

  <symbol id="instagram" viewBox="0 0 100 100" fill="none">
	<circle cx="50.156" cy="50.124" r="19.239"/>
    <circle cx="75.989" cy="24.29" r="3.933"/>
    <path d="M77.737,89.086H22.332
		c-6.219,0-11.26-5.041-11.26-11.26V22.421c0-6.219,5.041-11.26,11.26-11.26h55.405c6.219,0,11.26,5.041,11.26,11.26v55.405
		C88.997,84.045,83.956,89.086,77.737,89.086z"/>
  </symbol>

  <symbol id="telegram" viewBox="0 0 100 100" fill="none">
	<path d="M86.89,12.96c-2.57,1.03-75.46,32.29-75.46,32.29s-3.53,1.23-3.25,3.5c0.28,2.27,3.16,3.31,3.16,3.31
		l18.76,6.42c0,0,5.66,18.9,6.78,22.48c1.12,3.59,2.01,3.68,2.01,3.68c1.04,0.46,1.98-0.27,1.98-0.27L53,73.12l18.9,14.74
		c5.11,2.27,6.97-2.46,6.97-2.46l13.02-67.85C93.03,12.3,89.6,11.87,86.89,12.96z"/>
    <polyline points="30.17,58.48 78.17,26.48 44.17,66.48"/>
    <polyline points="40.17,84.48 44.17,66.48 52.17,72.48"/>
  </symbol>
</svg>
